<svg width="256" height="256" viewBox="0 0 256 256" fill="none" xmlns="http://www.w3.org/2000/svg">
<path fill-rule="evenodd" clip-rule="evenodd" d="M183.932 211.765C197.186 211.765 209.962 201.213 212.466 188.197L218.395 157.378H184.328C174.387 157.378 164.806 165.292 162.928 175.054L155.865 211.765H183.932ZM216.015 45C229.27 45 237.985 55.5516 235.481 68.5678L221.528 141.091H187.024C177.083 141.091 170.546 133.178 172.424 123.416L187.511 45H216.015ZM42.145 68.5678C44.6492 55.5516 57.4244 45 70.6792 45H99.1838L84.0975 123.416C82.2194 133.178 72.638 141.091 62.6969 141.091H28.1923L42.145 68.5678ZM39.0334 211.765C25.7785 211.765 17.0634 201.213 19.5676 188.197L25.4968 157.378H59.5635C69.5046 157.378 76.041 165.292 74.1629 175.054L67.1001 211.765H39.0334ZM169.049 45H116.982L109.919 81.711C108.041 91.4731 114.577 99.3868 124.519 99.3868H140.585C150.526 99.3868 160.108 91.4731 161.986 81.711L169.049 45ZM85.1242 211.765H137.629L152.715 133.349C154.593 123.587 148.057 115.674 138.116 115.674H121.611C111.67 115.674 102.089 123.587 100.211 133.349L85.1242 211.765Z" fill="#89CFF6"/>
<path fill-rule="evenodd" clip-rule="evenodd" d="M183.932 211.765C197.186 211.765 209.962 201.213 212.466 188.197L218.395 157.378H184.328C174.387 157.378 164.806 165.292 162.928 175.054L155.865 211.765H183.932ZM216.015 45C229.27 45 237.985 55.5516 235.481 68.5678L221.528 141.091H187.024C177.083 141.091 170.546 133.178 172.424 123.416L187.511 45H216.015ZM42.145 68.5678C44.6492 55.5516 57.4244 45 70.6792 45H99.1838L84.0975 123.416C82.2194 133.178 72.638 141.091 62.6969 141.091H28.1923L42.145 68.5678ZM39.0334 211.765C25.7785 211.765 17.0634 201.213 19.5676 188.197L25.4968 157.378H59.5635C69.5046 157.378 76.041 165.292 74.1629 175.054L67.1001 211.765H39.0334ZM169.049 45H116.982L109.919 81.711C108.041 91.4731 114.577 99.3868 124.519 99.3868H140.585C150.526 99.3868 160.108 91.4731 161.986 81.711L169.049 45ZM85.1242 211.765H137.629L152.715 133.349C154.593 123.587 148.057 115.674 138.116 115.674H121.611C111.67 115.674 102.089 123.587 100.211 133.349L85.1242 211.765Z" fill="url(#paint0_linear_2_152)" fill-opacity="0.36"/>
<path fill-rule="evenodd" clip-rule="evenodd" d="M183.932 211.765C197.186 211.765 209.962 201.213 212.466 188.197L218.395 157.378H184.328C174.387 157.378 164.806 165.292 162.928 175.054L155.865 211.765H183.932ZM216.015 45C229.27 45 237.985 55.5516 235.481 68.5678L221.528 141.091H187.024C177.083 141.091 170.546 133.178 172.424 123.416L187.511 45H216.015ZM42.145 68.5678C44.6492 55.5516 57.4244 45 70.6792 45H99.1838L84.0975 123.416C82.2194 133.178 72.638 141.091 62.6969 141.091H28.1923L42.145 68.5678ZM39.0334 211.765C25.7785 211.765 17.0634 201.213 19.5676 188.197L25.4968 157.378H59.5635C69.5046 157.378 76.041 165.292 74.1629 175.054L67.1001 211.765H39.0334ZM169.049 45H116.982L109.919 81.711C108.041 91.4731 114.577 99.3868 124.519 99.3868H140.585C150.526 99.3868 160.108 91.4731 161.986 81.711L169.049 45ZM85.1242 211.765H137.629L152.715 133.349C154.593 123.587 148.057 115.674 138.116 115.674H121.611C111.67 115.674 102.089 123.587 100.211 133.349L85.1242 211.765Z" fill="url(#paint1_radial_2_152)" fill-opacity="0.42"/>
<defs>
<linearGradient id="paint0_linear_2_152" x1="130.753" y1="211.765" x2="130.753" y2="36.7984" gradientUnits="userSpaceOnUse">
<stop stop-color="#921AEF"/>
<stop offset="1" stop-color="#AFCCF8"/>
</linearGradient>
<radialGradient id="paint1_radial_2_152" cx="0" cy="0" r="1" gradientUnits="userSpaceOnUse" gradientTransform="translate(185.618 267.809) rotate(-124.71) scale(281.021 316.378)">
<stop stop-color="#A303CB"/>
<stop offset="1" stop-color="#4DA5F6"/>
</radialGradient>
</defs>
</svg>
